<?xml version="1.0" encoding="UTF-8" standalone="no"?>
<!-- Generator: Adobe Illustrator 17.0.0, SVG Export Plug-In . SVG Version: 6.00 Build 0)  -->

<svg
   xmlns:dc="http://purl.org/dc/elements/1.1/"
   xmlns:cc="http://creativecommons.org/ns#"
   xmlns:rdf="http://www.w3.org/1999/02/22-rdf-syntax-ns#"
   xmlns:svg="http://www.w3.org/2000/svg"
   xmlns="http://www.w3.org/2000/svg"
   xmlns:sodipodi="http://sodipodi.sourceforge.net/DTD/sodipodi-0.dtd"
   xmlns:inkscape="http://www.inkscape.org/namespaces/inkscape"
   version="1.1"
   id="Layer_1"
   x="0px"
   y="0px"
   width="100px"
   height="100px"
   viewBox="0 0 100 100"
   enable-background="new 0 0 100 100"
   xml:space="preserve"
   inkscape:version="0.91 r13725"
   sodipodi:docname="fi-shopping-cart1.svg"><metadata
     id="metadata15"><rdf:RDF><cc:Work
         rdf:about=""><dc:format>image/svg+xml</dc:format><dc:type
           rdf:resource="http://purl.org/dc/dcmitype/StillImage" /><dc:title></dc:title></cc:Work></rdf:RDF></metadata><defs
     id="defs13" /><sodipodi:namedview
     pagecolor="#ffffff"
     bordercolor="#666666"
     borderopacity="1"
     objecttolerance="10"
     gridtolerance="10"
     guidetolerance="10"
     inkscape:pageopacity="0"
     inkscape:pageshadow="2"
     inkscape:window-width="1284"
     inkscape:window-height="822"
     id="namedview11"
     showgrid="false"
     inkscape:zoom="2.36"
     inkscape:cx="50"
     inkscape:cy="50"
     inkscape:window-x="0"
     inkscape:window-y="0"
     inkscape:window-maximized="0"
     inkscape:current-layer="Layer_1" /><g
     id="g3"
     style="fill:#0089bb;fill-opacity:1"><circle
       cx="32.961"
       cy="81.02"
       r="5.889"
       id="circle5"
       style="fill:#0089bb;fill-opacity:1" /><circle
       cx="74.309"
       cy="81.02"
       r="5.889"
       id="circle7"
       style="fill:#0089bb;fill-opacity:1" /><path
       d="M73.513,55.216c1.377,0,2.556-0.812,3.11-1.978l0.003,0.002l14.589-25.27l-0.018-0.01c0.214-0.449,0.344-0.946,0.344-1.477   c0-1.907-1.545-3.452-3.452-3.452h0H73.513H44.929h-10.43v-6.488h0c0-1.907-1.545-3.452-3.452-3.452h0h0H12.186v0.028   c-0.092-0.008-0.181-0.028-0.275-0.028c-1.763,0-3.202,1.327-3.41,3.035H8.459v3.452v0c0,1.907,1.545,3.452,3.452,3.452   c0.094,0,0.183-0.021,0.275-0.028v0.028h12.373v43.733h0.001c0.005,1.902,1.548,3.442,3.451,3.442c0,0,0.001,0,0.002,0v0h59.254   v-0.085c1.633-0.103,2.948-1.329,3.185-2.922h0.049v-0.49c0-0.006,0.002-0.012,0.002-0.018c0-0.006-0.002-0.012-0.002-0.018v-3.002   c0-0.006,0.002-0.012,0.002-0.018c0-1.833-1.432-3.316-3.236-3.429v-0.022H34.498v-4.988H73.513z"
       id="path9"
       style="fill:#0089bb;fill-opacity:1" /></g><path
     style="opacity:0;fill:#070000;fill-opacity:0;stroke:#008000;stroke-width:0.42372882"
     d="m 26.743802,69.742805 c -0.50913,-0.205131 -1.128833,-0.752547 -1.377119,-1.21647 -0.303151,-0.566445 -0.451429,-8.229166 -0.451429,-23.328987 l 0,-22.485484 -7.123491,0 c -6.583158,0 -7.193833,-0.06553 -8.0508472,-0.863964 -0.7780264,-0.724842 -0.9273565,-1.327036 -0.9273565,-3.739697 0,-2.458102 0.1424231,-3.009533 0.9806997,-3.797053 0.954,-0.896236 1.275004,-0.921319 11.790545,-0.921319 10.751535,0 10.814815,0.0053 11.731165,0.980699 0.807895,0.859966 0.921319,1.459867 0.921319,4.872881 l 0,3.892182 27.363102,0 27.363106,0 1.238589,1.238592 c 0.681229,0.681226 1.237436,1.586946 1.236021,2.012712 -0.003,0.894892 -14.457907,26.146513 -15.784903,27.574967 l -0.885673,0.95339 -20.265119,0 -20.265123,0 0,2.754238 0,2.754237 26.849636,0 c 26.521445,0 26.863284,0.01072 27.966101,0.878212 1.001339,0.787652 1.116467,1.161928 1.116467,3.629551 0,3.287271 -0.392615,4.14908 -2.172928,4.769703 -1.645246,0.573534 -59.834442,0.613063 -61.252762,0.04161 z"
     id="path4143"
     inkscape:connector-curvature="0" /></svg>