<?xml version="1.0" encoding="UTF-8" standalone="no"?>
<!-- Generator: Adobe Illustrator 17.0.0, SVG Export Plug-In . SVG Version: 6.00 Build 0)  -->

<svg
   xmlns:dc="http://purl.org/dc/elements/1.1/"
   xmlns:cc="http://creativecommons.org/ns#"
   xmlns:rdf="http://www.w3.org/1999/02/22-rdf-syntax-ns#"
   xmlns:svg="http://www.w3.org/2000/svg"
   xmlns="http://www.w3.org/2000/svg"
   xmlns:sodipodi="http://sodipodi.sourceforge.net/DTD/sodipodi-0.dtd"
   xmlns:inkscape="http://www.inkscape.org/namespaces/inkscape"
   version="1.1"
   id="Layer_1"
   x="0px"
   y="0px"
   width="100px"
   height="100px"
   viewBox="0 0 100 100"
   enable-background="new 0 0 100 100"
   xml:space="preserve"
   inkscape:version="0.91 r13725"
   sodipodi:docname="fi-torsos-all1.svg"><metadata
     id="metadata4158"><rdf:RDF><cc:Work
         rdf:about=""><dc:format>image/svg+xml</dc:format><dc:type
           rdf:resource="http://purl.org/dc/dcmitype/StillImage" /><dc:title></dc:title></cc:Work></rdf:RDF></metadata><defs
     id="defs4156" /><sodipodi:namedview
     pagecolor="#ffffff"
     bordercolor="#666666"
     borderopacity="1"
     objecttolerance="10"
     gridtolerance="10"
     guidetolerance="10"
     inkscape:pageopacity="0"
     inkscape:pageshadow="2"
     inkscape:window-width="1214"
     inkscape:window-height="706"
     id="namedview4154"
     showgrid="false"
     inkscape:zoom="2.36"
     inkscape:cx="50"
     inkscape:cy="50"
     inkscape:window-x="0"
     inkscape:window-y="0"
     inkscape:window-maximized="0"
     inkscape:current-layer="Layer_1" /><g
     id="g4146"
     style="fill:#0089bb;fill-opacity:1"><path
       d="M96.117,57.583l-16.185-7.719c3.774-2.373,6.338-7.016,6.338-12.354c0-7.754-5.397-14.034-12.058-14.034   c-2.289,0-4.403,0.781-6.223,2.066c1.086,2.756,1.701,5.796,1.701,8.999c0,4.782-1.411,9.317-3.825,13.066   c0.833,0.932,1.771,1.735,2.809,2.36l-0.01,0.003l10.426,4.971c2.947,1.427,4.853,4.583,4.853,8.045v13.54h11.148   c1.489,0,2.694-1.401,2.694-3.13V60.492C97.785,59.21,97.126,58.072,96.117,57.583z"
       id="path4148"
       style="fill:#0089bb;fill-opacity:1" /><path
       d="M31.567,49.825c0.861-0.548,1.651-1.221,2.368-1.987c-2.514-3.781-3.972-8.401-3.972-13.297c0-3.271,0.646-6.37,1.777-9.17   c-1.76-1.172-3.773-1.895-5.948-1.895c-6.666,0-12.062,6.28-12.062,14.034c0,5.425,2.651,10.12,6.524,12.457l-16.349,7.61   c-1.02,0.479-1.691,1.629-1.691,2.915v12.903c0,1.729,1.209,3.13,2.694,3.13h10.805v-13.54c0-3.503,1.938-6.672,4.943-8.08   L31.567,49.825z"
       id="path4150"
       style="fill:#0089bb;fill-opacity:1" /><path
       d="M76.94,59.386l-14.077-6.715l-5.952-2.84c2.6-1.637,4.711-4.165,6.093-7.21c1.096-2.418,1.749-5.155,1.749-8.081   c0-1.642-0.26-3.201-0.623-4.706c-1.771-7.293-7.466-12.665-14.302-12.665c-6.708,0-12.316,5.181-14.196,12.266   c-0.434,1.625-0.733,3.315-0.733,5.105c0,3.109,0.727,6.008,1.961,8.529c1.427,2.925,3.542,5.337,6.116,6.888l-5.702,2.654   l-14.534,6.768c-1.262,0.591-2.092,2.016-2.092,3.606v13.54v2.43c0,2.14,1.492,3.875,3.333,3.875h51.691   c1.841,0,3.333-1.735,3.333-3.875v-2.43v-13.54C79.006,61.401,78.19,59.99,76.94,59.386z"
       id="path4152"
       style="fill:#0089bb;fill-opacity:1" /></g></svg>